<svg id="Capa_1" enable-background="new 0 0 512 512" height="512" viewBox="0 0 512 512" width="512" xmlns="http://www.w3.org/2000/svg"><g><path d="m512 215.308v149.541c0 73.431-54.249 134.985-125.074 144.658h-.01c-6.243.855-12.62 1.318-19.11 1.329-44.937.124-85.186-20.367-111.806-52.529-26.62 32.162-66.879 52.653-111.826 52.529-79.922-.227-144.174-66.066-144.174-145.987v-149.541c0-12.321 15.381-17.946 23.344-8.52l85.268 101.009c7.263 8.602 1.144 21.768-10.106 21.768h-32.132v36.675c0 43.381 35.521 78.634 78.994 78.201 43.072-.423 77.439-36.149 77.439-79.2v-207.459h66.385v207.458c0 43.051 34.367 78.778 77.428 79.2 43.484.433 79.005-34.82 79.005-78.201v-36.675h-32.131c-11.25 0-17.369-13.166-10.106-21.768l85.268-101.009c7.953-9.425 23.344-3.8 23.344 8.521z" fill="#d1e2e7"/><g fill="#b7d0d5"><path d="m184.487 444.448c43.057-.424 77.436-36.155 77.436-79.214v-206.439-1.015h-39.109v1.015 206.439c0 36.593-24.835 67.879-58.719 76.715 6.512 1.687 13.344 2.568 20.392 2.499z"/><path d="m413.5 329.568h32.128v36.674c0 36.356-24.946 66.983-58.614 75.707 5.988 1.561 12.252 2.436 18.718 2.499 43.485.428 79.005-34.819 79.005-78.207v-36.674h-32.128c-11.256 0-17.369-13.161-10.109-21.762l69.5-82.336v-10.15c0-12.332-15.385-17.956-23.339-8.533l-85.271 101.019c-7.26 8.601-1.146 21.763 10.11 21.763z"/><path d="m39.109 364.842v-139.373l-15.771-18.684c-7.954-9.422-23.338-3.797-23.338 8.534v149.523c0 79.925 64.258 145.769 144.183 145.992 6.783.019 13.457-.44 19.996-1.329-70.812-9.676-125.07-71.221-125.07-144.663z"/><path d="m386.916 509.506c-6.242.855-12.619 1.316-19.105 1.33-44.941.123-85.187-20.367-111.81-52.526 7.124-5.862 13.664-12.402 19.553-19.499 22.606 27.3 74.576 65.674 111.362 70.695z"/></g><path d="m222.808 157.782v19.296c10.446 4.821 22.077 7.51 34.336 7.51 11.373 0 22.2-2.318 32.049-6.5v-20.305h-66.385z" fill="#b7d0d5"/><path d="m257.138 1.164c-45.322 0-82.068 36.746-82.068 82.068s36.746 82.057 82.068 82.057 82.057-36.736 82.057-82.057-36.735-82.068-82.057-82.068zm0 117.572c-19.614 0-35.505-15.901-35.505-35.505 0-19.614 15.89-35.515 35.505-35.515 19.614 0 35.505 15.901 35.505 35.515 0 19.604-15.89 35.505-35.505 35.505z" fill="#d1e2e7"/><g><path d="m201.183 83.231c0-40.877 29.896-74.766 69.011-81.022-4.253-.68-8.611-1.046-13.056-1.046-45.322 0-82.068 36.746-82.068 82.068s36.746 82.057 82.068 82.057c4.445 0 8.803-.365 13.056-1.045-39.115-6.254-69.011-40.135-69.011-81.012z" fill="#b7d0d5"/></g></g></svg>